<mxfile host="Electron" agent="Mozilla/5.0 (Windows NT 10.0; Win64; x64) AppleWebKit/537.36 (KHTML, like Gecko) draw.io/26.2.2 Chrome/134.0.6998.178 Electron/35.1.2 Safari/537.36" version="26.2.2">
  <diagram name="ページ1" id="jOxPYxRe2NjSyaelDi7L">
    <mxGraphModel dx="1115" dy="849" grid="1" gridSize="10" guides="1" tooltips="1" connect="1" arrows="1" fold="1" page="1" pageScale="1" pageWidth="827" pageHeight="1169" math="0" shadow="0">
      <root>
        <mxCell id="0" />
        <mxCell id="1" parent="0" />
        <mxCell id="DdHN2ZvcSUB-z4P__BnH-2" value="クライアントプログラムの各ユースケースに関するアクティビティ図" style="swimlane;childLayout=stackLayout;resizeParent=1;resizeParentMax=0;startSize=20;html=1;" vertex="1" parent="1">
          <mxGeometry x="60" y="10" width="740" height="1040" as="geometry" />
        </mxCell>
        <mxCell id="DdHN2ZvcSUB-z4P__BnH-3" value="プレイヤー" style="swimlane;startSize=20;html=1;" vertex="1" parent="DdHN2ZvcSUB-z4P__BnH-2">
          <mxGeometry y="20" width="130" height="1020" as="geometry" />
        </mxCell>
        <mxCell id="DdHN2ZvcSUB-z4P__BnH-26" value="先手後手の選択" style="rounded=0;whiteSpace=wrap;html=1;" vertex="1" parent="DdHN2ZvcSUB-z4P__BnH-3">
          <mxGeometry x="31" y="140" width="90" height="20" as="geometry" />
        </mxCell>
        <mxCell id="DdHN2ZvcSUB-z4P__BnH-41" value="プレイヤー名入力" style="rounded=0;whiteSpace=wrap;html=1;" vertex="1" parent="DdHN2ZvcSUB-z4P__BnH-3">
          <mxGeometry x="10" y="210" width="100" height="20" as="geometry" />
        </mxCell>
        <mxCell id="DdHN2ZvcSUB-z4P__BnH-64" value="設置場所の入力" style="rounded=0;whiteSpace=wrap;html=1;" vertex="1" parent="DdHN2ZvcSUB-z4P__BnH-3">
          <mxGeometry x="5" y="427.5" width="120" height="25" as="geometry" />
        </mxCell>
        <mxCell id="DdHN2ZvcSUB-z4P__BnH-160" style="edgeStyle=orthogonalEdgeStyle;rounded=0;orthogonalLoop=1;jettySize=auto;html=1;exitX=0.5;exitY=1;exitDx=0;exitDy=0;" edge="1" parent="DdHN2ZvcSUB-z4P__BnH-3" source="DdHN2ZvcSUB-z4P__BnH-158">
          <mxGeometry relative="1" as="geometry">
            <mxPoint x="150" y="110" as="targetPoint" />
            <Array as="points">
              <mxPoint x="65" y="110" />
            </Array>
          </mxGeometry>
        </mxCell>
        <mxCell id="DdHN2ZvcSUB-z4P__BnH-158" value="プレイ方法の選択or終了" style="rounded=0;whiteSpace=wrap;html=1;" vertex="1" parent="DdHN2ZvcSUB-z4P__BnH-3">
          <mxGeometry x="5" y="55" width="120" height="40" as="geometry" />
        </mxCell>
        <mxCell id="DdHN2ZvcSUB-z4P__BnH-156" value="終了かスタート画面へ戻るか選択" style="rounded=0;whiteSpace=wrap;html=1;" vertex="1" parent="DdHN2ZvcSUB-z4P__BnH-3">
          <mxGeometry x="5" y="805" width="120" height="40" as="geometry" />
        </mxCell>
        <mxCell id="DdHN2ZvcSUB-z4P__BnH-4" value="クライアントプログラム" style="swimlane;startSize=20;html=1;" vertex="1" parent="DdHN2ZvcSUB-z4P__BnH-2">
          <mxGeometry x="130" y="20" width="460" height="1020" as="geometry" />
        </mxCell>
        <mxCell id="DdHN2ZvcSUB-z4P__BnH-24" style="edgeStyle=orthogonalEdgeStyle;rounded=0;orthogonalLoop=1;jettySize=auto;html=1;exitX=0.5;exitY=1;exitDx=0;exitDy=0;entryX=0.5;entryY=0;entryDx=0;entryDy=0;" edge="1" parent="DdHN2ZvcSUB-z4P__BnH-4" source="DdHN2ZvcSUB-z4P__BnH-14" target="DdHN2ZvcSUB-z4P__BnH-23">
          <mxGeometry relative="1" as="geometry" />
        </mxCell>
        <mxCell id="DdHN2ZvcSUB-z4P__BnH-14" value="" style="ellipse;whiteSpace=wrap;html=1;aspect=fixed;fillColor=light-dark(#000000, #1a1a1a);fontColor=#333333;strokeColor=#666666;" vertex="1" parent="DdHN2ZvcSUB-z4P__BnH-4">
          <mxGeometry x="160" y="20" width="20" height="20" as="geometry" />
        </mxCell>
        <mxCell id="DdHN2ZvcSUB-z4P__BnH-21" value="" style="ellipse;html=1;shape=endState;fillColor=#000000;strokeColor=#000000;" vertex="1" parent="DdHN2ZvcSUB-z4P__BnH-4">
          <mxGeometry x="320" y="120" width="21" height="20" as="geometry" />
        </mxCell>
        <mxCell id="DdHN2ZvcSUB-z4P__BnH-29" style="edgeStyle=orthogonalEdgeStyle;rounded=0;orthogonalLoop=1;jettySize=auto;html=1;exitX=0.5;exitY=1;exitDx=0;exitDy=0;entryX=0.5;entryY=0;entryDx=0;entryDy=0;" edge="1" parent="DdHN2ZvcSUB-z4P__BnH-4" source="DdHN2ZvcSUB-z4P__BnH-23" target="DdHN2ZvcSUB-z4P__BnH-27">
          <mxGeometry relative="1" as="geometry" />
        </mxCell>
        <mxCell id="DdHN2ZvcSUB-z4P__BnH-23" value="&lt;div&gt;スタート画面&lt;/div&gt;" style="rounded=0;whiteSpace=wrap;html=1;" vertex="1" parent="DdHN2ZvcSUB-z4P__BnH-4">
          <mxGeometry x="100" y="60" width="140" height="30" as="geometry" />
        </mxCell>
        <mxCell id="DdHN2ZvcSUB-z4P__BnH-27" value="" style="rhombus;whiteSpace=wrap;html=1;" vertex="1" parent="DdHN2ZvcSUB-z4P__BnH-4">
          <mxGeometry x="160" y="120" width="20" height="20" as="geometry" />
        </mxCell>
        <mxCell id="DdHN2ZvcSUB-z4P__BnH-61" style="edgeStyle=orthogonalEdgeStyle;rounded=0;orthogonalLoop=1;jettySize=auto;html=1;exitX=0.5;exitY=1;exitDx=0;exitDy=0;" edge="1" parent="DdHN2ZvcSUB-z4P__BnH-4" source="DdHN2ZvcSUB-z4P__BnH-32">
          <mxGeometry relative="1" as="geometry">
            <mxPoint x="170" y="370" as="targetPoint" />
            <Array as="points">
              <mxPoint x="75" y="370" />
            </Array>
          </mxGeometry>
        </mxCell>
        <mxCell id="DdHN2ZvcSUB-z4P__BnH-32" value="CPUプログラムを呼び出す" style="rounded=0;whiteSpace=wrap;html=1;" vertex="1" parent="DdHN2ZvcSUB-z4P__BnH-4">
          <mxGeometry x="30" y="160" width="90" height="40" as="geometry" />
        </mxCell>
        <mxCell id="DdHN2ZvcSUB-z4P__BnH-164" style="edgeStyle=orthogonalEdgeStyle;rounded=0;orthogonalLoop=1;jettySize=auto;html=1;exitX=0.5;exitY=1;exitDx=0;exitDy=0;entryX=1;entryY=0.5;entryDx=0;entryDy=0;" edge="1" parent="DdHN2ZvcSUB-z4P__BnH-4" source="DdHN2ZvcSUB-z4P__BnH-16" target="DdHN2ZvcSUB-z4P__BnH-23">
          <mxGeometry relative="1" as="geometry">
            <Array as="points">
              <mxPoint x="170" y="320" />
              <mxPoint x="260" y="320" />
              <mxPoint x="260" y="75" />
            </Array>
          </mxGeometry>
        </mxCell>
        <mxCell id="DdHN2ZvcSUB-z4P__BnH-165" value="接続失敗" style="edgeLabel;html=1;align=center;verticalAlign=middle;resizable=0;points=[];" vertex="1" connectable="0" parent="DdHN2ZvcSUB-z4P__BnH-164">
          <mxGeometry x="-0.6786" y="1" relative="1" as="geometry">
            <mxPoint as="offset" />
          </mxGeometry>
        </mxCell>
        <mxCell id="DdHN2ZvcSUB-z4P__BnH-16" value="" style="rhombus;whiteSpace=wrap;html=1;" vertex="1" parent="DdHN2ZvcSUB-z4P__BnH-4">
          <mxGeometry x="160" y="280" width="20" height="20" as="geometry" />
        </mxCell>
        <mxCell id="DdHN2ZvcSUB-z4P__BnH-48" style="edgeStyle=orthogonalEdgeStyle;rounded=0;orthogonalLoop=1;jettySize=auto;html=1;exitX=0.5;exitY=1;exitDx=0;exitDy=0;entryX=0.5;entryY=0;entryDx=0;entryDy=0;" edge="1" parent="DdHN2ZvcSUB-z4P__BnH-4" source="DdHN2ZvcSUB-z4P__BnH-46" target="DdHN2ZvcSUB-z4P__BnH-16">
          <mxGeometry relative="1" as="geometry" />
        </mxCell>
        <mxCell id="DdHN2ZvcSUB-z4P__BnH-46" value="サーバに接続" style="rounded=0;whiteSpace=wrap;html=1;" vertex="1" parent="DdHN2ZvcSUB-z4P__BnH-4">
          <mxGeometry x="110" y="230" width="120" height="30" as="geometry" />
        </mxCell>
        <mxCell id="DdHN2ZvcSUB-z4P__BnH-50" value="" style="endArrow=classic;html=1;rounded=0;exitX=1;exitY=0.5;exitDx=0;exitDy=0;" edge="1" parent="DdHN2ZvcSUB-z4P__BnH-4" source="DdHN2ZvcSUB-z4P__BnH-16">
          <mxGeometry width="50" height="50" relative="1" as="geometry">
            <mxPoint x="251" y="320" as="sourcePoint" />
            <mxPoint x="530" y="290" as="targetPoint" />
          </mxGeometry>
        </mxCell>
        <mxCell id="DdHN2ZvcSUB-z4P__BnH-134" value="接続成功" style="edgeLabel;html=1;align=center;verticalAlign=middle;resizable=0;points=[];" vertex="1" connectable="0" parent="DdHN2ZvcSUB-z4P__BnH-50">
          <mxGeometry x="-0.1983" relative="1" as="geometry">
            <mxPoint as="offset" />
          </mxGeometry>
        </mxCell>
        <mxCell id="DdHN2ZvcSUB-z4P__BnH-57" style="edgeStyle=orthogonalEdgeStyle;rounded=0;orthogonalLoop=1;jettySize=auto;html=1;exitX=0.5;exitY=1;exitDx=0;exitDy=0;entryX=0.5;entryY=0;entryDx=0;entryDy=0;" edge="1" parent="DdHN2ZvcSUB-z4P__BnH-4" source="DdHN2ZvcSUB-z4P__BnH-52" target="DdHN2ZvcSUB-z4P__BnH-56">
          <mxGeometry relative="1" as="geometry" />
        </mxCell>
        <mxCell id="DdHN2ZvcSUB-z4P__BnH-52" value="先手後手情報の受信" style="rounded=0;whiteSpace=wrap;html=1;" vertex="1" parent="DdHN2ZvcSUB-z4P__BnH-4">
          <mxGeometry x="110" y="330" width="120" height="20" as="geometry" />
        </mxCell>
        <mxCell id="DdHN2ZvcSUB-z4P__BnH-53" value="" style="endArrow=classic;html=1;rounded=0;entryX=1;entryY=0.5;entryDx=0;entryDy=0;" edge="1" parent="DdHN2ZvcSUB-z4P__BnH-4" target="DdHN2ZvcSUB-z4P__BnH-52">
          <mxGeometry width="50" height="50" relative="1" as="geometry">
            <mxPoint x="520" y="340" as="sourcePoint" />
            <mxPoint x="290" y="410" as="targetPoint" />
          </mxGeometry>
        </mxCell>
        <mxCell id="DdHN2ZvcSUB-z4P__BnH-63" style="edgeStyle=orthogonalEdgeStyle;rounded=0;orthogonalLoop=1;jettySize=auto;html=1;exitX=0.5;exitY=1;exitDx=0;exitDy=0;entryX=0.5;entryY=0;entryDx=0;entryDy=0;" edge="1" parent="DdHN2ZvcSUB-z4P__BnH-4" source="DdHN2ZvcSUB-z4P__BnH-56" target="DdHN2ZvcSUB-z4P__BnH-62">
          <mxGeometry relative="1" as="geometry" />
        </mxCell>
        <mxCell id="DdHN2ZvcSUB-z4P__BnH-56" value="盤面の表示" style="rounded=0;whiteSpace=wrap;html=1;" vertex="1" parent="DdHN2ZvcSUB-z4P__BnH-4">
          <mxGeometry x="110" y="390" width="120" height="20" as="geometry" />
        </mxCell>
        <mxCell id="DdHN2ZvcSUB-z4P__BnH-62" value="" style="rhombus;whiteSpace=wrap;html=1;" vertex="1" parent="DdHN2ZvcSUB-z4P__BnH-4">
          <mxGeometry x="160" y="430" width="20" height="20" as="geometry" />
        </mxCell>
        <mxCell id="DdHN2ZvcSUB-z4P__BnH-71" style="edgeStyle=orthogonalEdgeStyle;rounded=0;orthogonalLoop=1;jettySize=auto;html=1;exitX=0.5;exitY=1;exitDx=0;exitDy=0;entryX=0.5;entryY=0;entryDx=0;entryDy=0;" edge="1" parent="DdHN2ZvcSUB-z4P__BnH-4" source="DdHN2ZvcSUB-z4P__BnH-66" target="DdHN2ZvcSUB-z4P__BnH-49">
          <mxGeometry relative="1" as="geometry">
            <mxPoint x="79" y="520" as="targetPoint" />
          </mxGeometry>
        </mxCell>
        <mxCell id="DdHN2ZvcSUB-z4P__BnH-66" value="プレイヤーの入力を受け取る" style="rounded=0;whiteSpace=wrap;html=1;" vertex="1" parent="DdHN2ZvcSUB-z4P__BnH-4">
          <mxGeometry x="19" y="460" width="120" height="40" as="geometry" />
        </mxCell>
        <mxCell id="DdHN2ZvcSUB-z4P__BnH-70" value="" style="endArrow=none;html=1;rounded=0;" edge="1" parent="DdHN2ZvcSUB-z4P__BnH-4">
          <mxGeometry width="50" height="50" relative="1" as="geometry">
            <mxPoint x="30" y="560" as="sourcePoint" />
            <mxPoint x="149" y="560" as="targetPoint" />
          </mxGeometry>
        </mxCell>
        <mxCell id="DdHN2ZvcSUB-z4P__BnH-72" value="入力情報を送信" style="rounded=0;whiteSpace=wrap;html=1;" vertex="1" parent="DdHN2ZvcSUB-z4P__BnH-4">
          <mxGeometry x="70" y="580" width="90" height="30" as="geometry" />
        </mxCell>
        <mxCell id="DdHN2ZvcSUB-z4P__BnH-77" style="edgeStyle=orthogonalEdgeStyle;rounded=0;orthogonalLoop=1;jettySize=auto;html=1;exitX=0.5;exitY=1;exitDx=0;exitDy=0;" edge="1" parent="DdHN2ZvcSUB-z4P__BnH-4" source="DdHN2ZvcSUB-z4P__BnH-49">
          <mxGeometry relative="1" as="geometry">
            <mxPoint x="79" y="560" as="targetPoint" />
          </mxGeometry>
        </mxCell>
        <mxCell id="DdHN2ZvcSUB-z4P__BnH-83" value="対人" style="edgeLabel;html=1;align=center;verticalAlign=middle;resizable=0;points=[];" vertex="1" connectable="0" parent="DdHN2ZvcSUB-z4P__BnH-77">
          <mxGeometry x="-0.1435" y="-3" relative="1" as="geometry">
            <mxPoint as="offset" />
          </mxGeometry>
        </mxCell>
        <mxCell id="DdHN2ZvcSUB-z4P__BnH-49" value="" style="rhombus;whiteSpace=wrap;html=1;" vertex="1" parent="DdHN2ZvcSUB-z4P__BnH-4">
          <mxGeometry x="69" y="515" width="20" height="20" as="geometry" />
        </mxCell>
        <mxCell id="DdHN2ZvcSUB-z4P__BnH-78" value="" style="endArrow=classic;html=1;rounded=0;entryX=0.5;entryY=0;entryDx=0;entryDy=0;" edge="1" parent="DdHN2ZvcSUB-z4P__BnH-4" target="DdHN2ZvcSUB-z4P__BnH-72">
          <mxGeometry width="50" height="50" relative="1" as="geometry">
            <mxPoint x="115" y="560" as="sourcePoint" />
            <mxPoint x="310" y="490" as="targetPoint" />
          </mxGeometry>
        </mxCell>
        <mxCell id="DdHN2ZvcSUB-z4P__BnH-131" style="edgeStyle=orthogonalEdgeStyle;rounded=0;orthogonalLoop=1;jettySize=auto;html=1;exitX=0.5;exitY=1;exitDx=0;exitDy=0;entryX=0.5;entryY=0;entryDx=0;entryDy=0;" edge="1" parent="DdHN2ZvcSUB-z4P__BnH-4" source="DdHN2ZvcSUB-z4P__BnH-79" target="DdHN2ZvcSUB-z4P__BnH-130">
          <mxGeometry relative="1" as="geometry" />
        </mxCell>
        <mxCell id="DdHN2ZvcSUB-z4P__BnH-79" value="盤面の変更" style="rounded=0;whiteSpace=wrap;html=1;" vertex="1" parent="DdHN2ZvcSUB-z4P__BnH-4">
          <mxGeometry x="110" y="630" width="90" height="30" as="geometry" />
        </mxCell>
        <mxCell id="DdHN2ZvcSUB-z4P__BnH-80" value="" style="endArrow=classic;html=1;rounded=0;entryX=0;entryY=0.5;entryDx=0;entryDy=0;" edge="1" parent="DdHN2ZvcSUB-z4P__BnH-4" target="DdHN2ZvcSUB-z4P__BnH-79">
          <mxGeometry width="50" height="50" relative="1" as="geometry">
            <mxPoint x="40" y="560" as="sourcePoint" />
            <mxPoint x="100" y="640" as="targetPoint" />
            <Array as="points">
              <mxPoint x="40" y="645" />
            </Array>
          </mxGeometry>
        </mxCell>
        <mxCell id="DdHN2ZvcSUB-z4P__BnH-81" value="" style="endArrow=classic;html=1;rounded=0;exitX=0;exitY=0.5;exitDx=0;exitDy=0;entryX=0;entryY=0.5;entryDx=0;entryDy=0;" edge="1" parent="DdHN2ZvcSUB-z4P__BnH-4" source="DdHN2ZvcSUB-z4P__BnH-49" target="DdHN2ZvcSUB-z4P__BnH-79">
          <mxGeometry width="50" height="50" relative="1" as="geometry">
            <mxPoint x="100" y="770" as="sourcePoint" />
            <mxPoint x="150" y="720" as="targetPoint" />
            <Array as="points">
              <mxPoint x="10" y="525" />
              <mxPoint x="10" y="645" />
            </Array>
          </mxGeometry>
        </mxCell>
        <mxCell id="DdHN2ZvcSUB-z4P__BnH-82" value="対CPU" style="edgeLabel;html=1;align=center;verticalAlign=middle;resizable=0;points=[];" vertex="1" connectable="0" parent="DdHN2ZvcSUB-z4P__BnH-81">
          <mxGeometry x="-0.7727" relative="1" as="geometry">
            <mxPoint as="offset" />
          </mxGeometry>
        </mxCell>
        <mxCell id="DdHN2ZvcSUB-z4P__BnH-129" style="edgeStyle=orthogonalEdgeStyle;rounded=0;orthogonalLoop=1;jettySize=auto;html=1;exitX=0.5;exitY=1;exitDx=0;exitDy=0;entryX=1;entryY=0.5;entryDx=0;entryDy=0;" edge="1" parent="DdHN2ZvcSUB-z4P__BnH-4" source="DdHN2ZvcSUB-z4P__BnH-120" target="DdHN2ZvcSUB-z4P__BnH-79">
          <mxGeometry relative="1" as="geometry" />
        </mxCell>
        <mxCell id="DdHN2ZvcSUB-z4P__BnH-120" value="相手の入力を受け取る" style="rounded=0;whiteSpace=wrap;html=1;" vertex="1" parent="DdHN2ZvcSUB-z4P__BnH-4">
          <mxGeometry x="310" y="510" width="125" height="30" as="geometry" />
        </mxCell>
        <mxCell id="DdHN2ZvcSUB-z4P__BnH-128" style="edgeStyle=orthogonalEdgeStyle;rounded=0;orthogonalLoop=1;jettySize=auto;html=1;exitX=0.5;exitY=1;exitDx=0;exitDy=0;entryX=1;entryY=0.5;entryDx=0;entryDy=0;" edge="1" parent="DdHN2ZvcSUB-z4P__BnH-4" source="DdHN2ZvcSUB-z4P__BnH-121" target="DdHN2ZvcSUB-z4P__BnH-79">
          <mxGeometry relative="1" as="geometry" />
        </mxCell>
        <mxCell id="DdHN2ZvcSUB-z4P__BnH-121" value="CPUの設置場所決定" style="rounded=0;whiteSpace=wrap;html=1;" vertex="1" parent="DdHN2ZvcSUB-z4P__BnH-4">
          <mxGeometry x="170" y="510" width="120" height="30" as="geometry" />
        </mxCell>
        <mxCell id="DdHN2ZvcSUB-z4P__BnH-145" style="edgeStyle=orthogonalEdgeStyle;rounded=0;orthogonalLoop=1;jettySize=auto;html=1;exitX=0.5;exitY=1;exitDx=0;exitDy=0;entryX=0.5;entryY=0;entryDx=0;entryDy=0;" edge="1" parent="DdHN2ZvcSUB-z4P__BnH-4" source="DdHN2ZvcSUB-z4P__BnH-130" target="DdHN2ZvcSUB-z4P__BnH-144">
          <mxGeometry relative="1" as="geometry" />
        </mxCell>
        <mxCell id="DdHN2ZvcSUB-z4P__BnH-130" value="終了判定" style="rounded=0;whiteSpace=wrap;html=1;" vertex="1" parent="DdHN2ZvcSUB-z4P__BnH-4">
          <mxGeometry x="112.5" y="690" width="85" height="30" as="geometry" />
        </mxCell>
        <mxCell id="DdHN2ZvcSUB-z4P__BnH-132" value="" style="endArrow=classic;html=1;rounded=0;entryX=0;entryY=0.5;entryDx=0;entryDy=0;" edge="1" parent="DdHN2ZvcSUB-z4P__BnH-4" target="DdHN2ZvcSUB-z4P__BnH-21">
          <mxGeometry width="50" height="50" relative="1" as="geometry">
            <mxPoint x="180" y="130" as="sourcePoint" />
            <mxPoint x="430" y="130" as="targetPoint" />
          </mxGeometry>
        </mxCell>
        <mxCell id="DdHN2ZvcSUB-z4P__BnH-133" value="終了" style="edgeLabel;html=1;align=center;verticalAlign=middle;resizable=0;points=[];" vertex="1" connectable="0" parent="DdHN2ZvcSUB-z4P__BnH-132">
          <mxGeometry x="0.5336" relative="1" as="geometry">
            <mxPoint as="offset" />
          </mxGeometry>
        </mxCell>
        <mxCell id="DdHN2ZvcSUB-z4P__BnH-136" value="勝敗判定" style="rounded=0;whiteSpace=wrap;html=1;" vertex="1" parent="DdHN2ZvcSUB-z4P__BnH-4">
          <mxGeometry x="110" y="810" width="89" height="30" as="geometry" />
        </mxCell>
        <mxCell id="DdHN2ZvcSUB-z4P__BnH-170" style="edgeStyle=orthogonalEdgeStyle;rounded=0;orthogonalLoop=1;jettySize=auto;html=1;exitX=0.5;exitY=1;exitDx=0;exitDy=0;entryX=0.5;entryY=0;entryDx=0;entryDy=0;" edge="1" parent="DdHN2ZvcSUB-z4P__BnH-4" source="DdHN2ZvcSUB-z4P__BnH-139" target="DdHN2ZvcSUB-z4P__BnH-141">
          <mxGeometry relative="1" as="geometry" />
        </mxCell>
        <mxCell id="DdHN2ZvcSUB-z4P__BnH-171" value="終了" style="edgeLabel;html=1;align=center;verticalAlign=middle;resizable=0;points=[];" vertex="1" connectable="0" parent="DdHN2ZvcSUB-z4P__BnH-170">
          <mxGeometry x="-0.3324" y="2" relative="1" as="geometry">
            <mxPoint as="offset" />
          </mxGeometry>
        </mxCell>
        <mxCell id="DdHN2ZvcSUB-z4P__BnH-173" style="edgeStyle=orthogonalEdgeStyle;rounded=0;orthogonalLoop=1;jettySize=auto;html=1;exitX=1;exitY=0.5;exitDx=0;exitDy=0;entryX=1;entryY=0.5;entryDx=0;entryDy=0;" edge="1" parent="DdHN2ZvcSUB-z4P__BnH-4" source="DdHN2ZvcSUB-z4P__BnH-139" target="DdHN2ZvcSUB-z4P__BnH-23">
          <mxGeometry relative="1" as="geometry">
            <Array as="points">
              <mxPoint x="450" y="900" />
              <mxPoint x="450" y="75" />
            </Array>
          </mxGeometry>
        </mxCell>
        <mxCell id="DdHN2ZvcSUB-z4P__BnH-175" value="スタート画面へ戻る" style="edgeLabel;html=1;align=center;verticalAlign=middle;resizable=0;points=[];" vertex="1" connectable="0" parent="DdHN2ZvcSUB-z4P__BnH-173">
          <mxGeometry x="-0.879" relative="1" as="geometry">
            <mxPoint as="offset" />
          </mxGeometry>
        </mxCell>
        <mxCell id="DdHN2ZvcSUB-z4P__BnH-139" value="" style="rhombus;whiteSpace=wrap;html=1;" vertex="1" parent="DdHN2ZvcSUB-z4P__BnH-4">
          <mxGeometry x="144.5" y="890" width="20" height="20" as="geometry" />
        </mxCell>
        <mxCell id="DdHN2ZvcSUB-z4P__BnH-146" style="edgeStyle=orthogonalEdgeStyle;rounded=0;orthogonalLoop=1;jettySize=auto;html=1;exitX=0.5;exitY=1;exitDx=0;exitDy=0;entryX=0.5;entryY=0;entryDx=0;entryDy=0;" edge="1" parent="DdHN2ZvcSUB-z4P__BnH-4" source="DdHN2ZvcSUB-z4P__BnH-144" target="DdHN2ZvcSUB-z4P__BnH-136">
          <mxGeometry relative="1" as="geometry" />
        </mxCell>
        <mxCell id="DdHN2ZvcSUB-z4P__BnH-144" value="" style="rhombus;whiteSpace=wrap;html=1;" vertex="1" parent="DdHN2ZvcSUB-z4P__BnH-4">
          <mxGeometry x="145" y="740" width="20" height="20" as="geometry" />
        </mxCell>
        <mxCell id="DdHN2ZvcSUB-z4P__BnH-148" value="" style="endArrow=classic;html=1;rounded=0;exitX=1;exitY=0.5;exitDx=0;exitDy=0;entryX=1;entryY=0.5;entryDx=0;entryDy=0;" edge="1" parent="DdHN2ZvcSUB-z4P__BnH-4" source="DdHN2ZvcSUB-z4P__BnH-144" target="DdHN2ZvcSUB-z4P__BnH-56">
          <mxGeometry width="50" height="50" relative="1" as="geometry">
            <mxPoint x="350" y="840" as="sourcePoint" />
            <mxPoint x="400" y="790" as="targetPoint" />
            <Array as="points">
              <mxPoint x="300" y="750" />
              <mxPoint x="300" y="400" />
            </Array>
          </mxGeometry>
        </mxCell>
        <mxCell id="DdHN2ZvcSUB-z4P__BnH-149" value="未終了" style="edgeLabel;html=1;align=center;verticalAlign=middle;resizable=0;points=[];" vertex="1" connectable="0" parent="DdHN2ZvcSUB-z4P__BnH-148">
          <mxGeometry x="-0.8771" y="-2" relative="1" as="geometry">
            <mxPoint as="offset" />
          </mxGeometry>
        </mxCell>
        <mxCell id="DdHN2ZvcSUB-z4P__BnH-154" style="edgeStyle=orthogonalEdgeStyle;rounded=0;orthogonalLoop=1;jettySize=auto;html=1;exitX=1;exitY=0.5;exitDx=0;exitDy=0;" edge="1" parent="DdHN2ZvcSUB-z4P__BnH-4" source="DdHN2ZvcSUB-z4P__BnH-153">
          <mxGeometry relative="1" as="geometry">
            <mxPoint x="490" y="779.8235294117646" as="targetPoint" />
          </mxGeometry>
        </mxCell>
        <mxCell id="DdHN2ZvcSUB-z4P__BnH-153" value="終了したことを知らせる" style="rounded=0;whiteSpace=wrap;html=1;" vertex="1" parent="DdHN2ZvcSUB-z4P__BnH-4">
          <mxGeometry x="230" y="760" width="140" height="40" as="geometry" />
        </mxCell>
        <mxCell id="DdHN2ZvcSUB-z4P__BnH-152" value="" style="endArrow=classic;html=1;rounded=0;exitX=0.5;exitY=1;exitDx=0;exitDy=0;" edge="1" parent="DdHN2ZvcSUB-z4P__BnH-4" source="DdHN2ZvcSUB-z4P__BnH-144" target="DdHN2ZvcSUB-z4P__BnH-153">
          <mxGeometry width="50" height="50" relative="1" as="geometry">
            <mxPoint x="330" y="830" as="sourcePoint" />
            <mxPoint x="250" y="780" as="targetPoint" />
            <Array as="points">
              <mxPoint x="155" y="780" />
            </Array>
          </mxGeometry>
        </mxCell>
        <mxCell id="DdHN2ZvcSUB-z4P__BnH-168" style="edgeStyle=orthogonalEdgeStyle;rounded=0;orthogonalLoop=1;jettySize=auto;html=1;exitX=1;exitY=0.5;exitDx=0;exitDy=0;" edge="1" parent="DdHN2ZvcSUB-z4P__BnH-4" source="DdHN2ZvcSUB-z4P__BnH-163">
          <mxGeometry relative="1" as="geometry">
            <mxPoint x="170" y="110.41176470588243" as="targetPoint" />
          </mxGeometry>
        </mxCell>
        <mxCell id="DdHN2ZvcSUB-z4P__BnH-163" value="選択を受け取る" style="rounded=0;whiteSpace=wrap;html=1;" vertex="1" parent="DdHN2ZvcSUB-z4P__BnH-4">
          <mxGeometry x="19" y="100" width="120" height="20" as="geometry" />
        </mxCell>
        <mxCell id="DdHN2ZvcSUB-z4P__BnH-141" value="" style="ellipse;html=1;shape=endState;fillColor=#000000;strokeColor=#000000;" vertex="1" parent="DdHN2ZvcSUB-z4P__BnH-4">
          <mxGeometry x="144" y="950" width="21" height="20" as="geometry" />
        </mxCell>
        <mxCell id="DdHN2ZvcSUB-z4P__BnH-5" value="サーバ" style="swimlane;startSize=20;html=1;" vertex="1" parent="DdHN2ZvcSUB-z4P__BnH-2">
          <mxGeometry x="590" y="20" width="150" height="1020" as="geometry" />
        </mxCell>
        <mxCell id="DdHN2ZvcSUB-z4P__BnH-74" value="" style="endArrow=classic;html=1;rounded=0;exitX=1;exitY=0.5;exitDx=0;exitDy=0;" edge="1" parent="DdHN2ZvcSUB-z4P__BnH-5" source="DdHN2ZvcSUB-z4P__BnH-72">
          <mxGeometry width="50" height="50" relative="1" as="geometry">
            <mxPoint x="80" y="550" as="sourcePoint" />
            <mxPoint x="90" y="595" as="targetPoint" />
          </mxGeometry>
        </mxCell>
        <mxCell id="DdHN2ZvcSUB-z4P__BnH-127" value="" style="endArrow=classic;html=1;rounded=0;entryX=1;entryY=0.5;entryDx=0;entryDy=0;" edge="1" parent="DdHN2ZvcSUB-z4P__BnH-5" target="DdHN2ZvcSUB-z4P__BnH-120">
          <mxGeometry width="50" height="50" relative="1" as="geometry">
            <mxPoint x="90" y="525" as="sourcePoint" />
            <mxPoint x="130" y="490" as="targetPoint" />
          </mxGeometry>
        </mxCell>
        <mxCell id="DdHN2ZvcSUB-z4P__BnH-155" value="切断の処理？" style="rounded=0;whiteSpace=wrap;html=1;" vertex="1" parent="DdHN2ZvcSUB-z4P__BnH-5">
          <mxGeometry x="30" y="750" width="100" height="60" as="geometry" />
        </mxCell>
        <mxCell id="DdHN2ZvcSUB-z4P__BnH-31" style="edgeStyle=orthogonalEdgeStyle;rounded=0;orthogonalLoop=1;jettySize=auto;html=1;exitX=0;exitY=0.5;exitDx=0;exitDy=0;entryX=0.5;entryY=0;entryDx=0;entryDy=0;" edge="1" parent="DdHN2ZvcSUB-z4P__BnH-2" source="DdHN2ZvcSUB-z4P__BnH-27" target="DdHN2ZvcSUB-z4P__BnH-26">
          <mxGeometry relative="1" as="geometry">
            <Array as="points">
              <mxPoint x="76" y="150" />
            </Array>
          </mxGeometry>
        </mxCell>
        <mxCell id="DdHN2ZvcSUB-z4P__BnH-39" value="対CPU" style="edgeLabel;html=1;align=center;verticalAlign=middle;resizable=0;points=[];" vertex="1" connectable="0" parent="DdHN2ZvcSUB-z4P__BnH-31">
          <mxGeometry x="-0.3176" relative="1" as="geometry">
            <mxPoint as="offset" />
          </mxGeometry>
        </mxCell>
        <mxCell id="DdHN2ZvcSUB-z4P__BnH-43" style="edgeStyle=orthogonalEdgeStyle;rounded=0;orthogonalLoop=1;jettySize=auto;html=1;exitX=0.5;exitY=1;exitDx=0;exitDy=0;entryX=0;entryY=0.5;entryDx=0;entryDy=0;" edge="1" parent="DdHN2ZvcSUB-z4P__BnH-2" source="DdHN2ZvcSUB-z4P__BnH-26" target="DdHN2ZvcSUB-z4P__BnH-32">
          <mxGeometry relative="1" as="geometry" />
        </mxCell>
        <mxCell id="DdHN2ZvcSUB-z4P__BnH-44" style="edgeStyle=orthogonalEdgeStyle;rounded=0;orthogonalLoop=1;jettySize=auto;html=1;exitX=1;exitY=0.5;exitDx=0;exitDy=0;entryX=1;entryY=0.5;entryDx=0;entryDy=0;" edge="1" parent="DdHN2ZvcSUB-z4P__BnH-2" source="DdHN2ZvcSUB-z4P__BnH-27" target="DdHN2ZvcSUB-z4P__BnH-41">
          <mxGeometry relative="1" as="geometry" />
        </mxCell>
        <mxCell id="DdHN2ZvcSUB-z4P__BnH-45" value="対人" style="edgeLabel;html=1;align=center;verticalAlign=middle;resizable=0;points=[];" vertex="1" connectable="0" parent="DdHN2ZvcSUB-z4P__BnH-44">
          <mxGeometry x="-0.5775" y="2" relative="1" as="geometry">
            <mxPoint as="offset" />
          </mxGeometry>
        </mxCell>
        <mxCell id="DdHN2ZvcSUB-z4P__BnH-47" style="edgeStyle=orthogonalEdgeStyle;rounded=0;orthogonalLoop=1;jettySize=auto;html=1;exitX=0.5;exitY=1;exitDx=0;exitDy=0;entryX=0;entryY=0.5;entryDx=0;entryDy=0;" edge="1" parent="DdHN2ZvcSUB-z4P__BnH-2" source="DdHN2ZvcSUB-z4P__BnH-41" target="DdHN2ZvcSUB-z4P__BnH-46">
          <mxGeometry relative="1" as="geometry">
            <Array as="points">
              <mxPoint x="60" y="265" />
            </Array>
          </mxGeometry>
        </mxCell>
        <mxCell id="DdHN2ZvcSUB-z4P__BnH-65" style="edgeStyle=orthogonalEdgeStyle;rounded=0;orthogonalLoop=1;jettySize=auto;html=1;exitX=0;exitY=0.5;exitDx=0;exitDy=0;entryX=1;entryY=0.5;entryDx=0;entryDy=0;" edge="1" parent="DdHN2ZvcSUB-z4P__BnH-2" source="DdHN2ZvcSUB-z4P__BnH-62" target="DdHN2ZvcSUB-z4P__BnH-64">
          <mxGeometry relative="1" as="geometry">
            <mxPoint x="210" y="480" as="targetPoint" />
          </mxGeometry>
        </mxCell>
        <mxCell id="DdHN2ZvcSUB-z4P__BnH-75" value="自分の番" style="edgeLabel;html=1;align=center;verticalAlign=middle;resizable=0;points=[];" vertex="1" connectable="0" parent="DdHN2ZvcSUB-z4P__BnH-65">
          <mxGeometry x="-0.0909" relative="1" as="geometry">
            <mxPoint as="offset" />
          </mxGeometry>
        </mxCell>
        <mxCell id="DdHN2ZvcSUB-z4P__BnH-67" style="edgeStyle=orthogonalEdgeStyle;rounded=0;orthogonalLoop=1;jettySize=auto;html=1;exitX=0.5;exitY=1;exitDx=0;exitDy=0;entryX=0;entryY=0.5;entryDx=0;entryDy=0;" edge="1" parent="DdHN2ZvcSUB-z4P__BnH-2" source="DdHN2ZvcSUB-z4P__BnH-64" target="DdHN2ZvcSUB-z4P__BnH-66">
          <mxGeometry relative="1" as="geometry" />
        </mxCell>
        <mxCell id="DdHN2ZvcSUB-z4P__BnH-161" style="edgeStyle=orthogonalEdgeStyle;rounded=0;orthogonalLoop=1;jettySize=auto;html=1;exitX=0;exitY=0.5;exitDx=0;exitDy=0;entryX=1;entryY=0.5;entryDx=0;entryDy=0;" edge="1" parent="DdHN2ZvcSUB-z4P__BnH-2" source="DdHN2ZvcSUB-z4P__BnH-136" target="DdHN2ZvcSUB-z4P__BnH-156">
          <mxGeometry relative="1" as="geometry" />
        </mxCell>
        <mxCell id="DdHN2ZvcSUB-z4P__BnH-162" style="edgeStyle=orthogonalEdgeStyle;rounded=0;orthogonalLoop=1;jettySize=auto;html=1;exitX=0.5;exitY=1;exitDx=0;exitDy=0;entryX=0.5;entryY=0;entryDx=0;entryDy=0;" edge="1" parent="DdHN2ZvcSUB-z4P__BnH-2" source="DdHN2ZvcSUB-z4P__BnH-156" target="DdHN2ZvcSUB-z4P__BnH-139">
          <mxGeometry relative="1" as="geometry" />
        </mxCell>
        <mxCell id="DdHN2ZvcSUB-z4P__BnH-159" style="edgeStyle=orthogonalEdgeStyle;rounded=0;orthogonalLoop=1;jettySize=auto;html=1;exitX=0;exitY=0.5;exitDx=0;exitDy=0;entryX=1;entryY=0.5;entryDx=0;entryDy=0;" edge="1" parent="DdHN2ZvcSUB-z4P__BnH-2" source="DdHN2ZvcSUB-z4P__BnH-23" target="DdHN2ZvcSUB-z4P__BnH-158">
          <mxGeometry relative="1" as="geometry">
            <mxPoint x="190" y="80" as="targetPoint" />
          </mxGeometry>
        </mxCell>
        <mxCell id="DdHN2ZvcSUB-z4P__BnH-124" style="edgeStyle=orthogonalEdgeStyle;rounded=0;orthogonalLoop=1;jettySize=auto;html=1;exitX=1;exitY=0.5;exitDx=0;exitDy=0;entryX=0.5;entryY=0;entryDx=0;entryDy=0;" edge="1" parent="1" source="DdHN2ZvcSUB-z4P__BnH-118" target="DdHN2ZvcSUB-z4P__BnH-120">
          <mxGeometry relative="1" as="geometry" />
        </mxCell>
        <mxCell id="DdHN2ZvcSUB-z4P__BnH-125" value="対人" style="edgeLabel;html=1;align=center;verticalAlign=middle;resizable=0;points=[];" vertex="1" connectable="0" parent="DdHN2ZvcSUB-z4P__BnH-124">
          <mxGeometry x="-0.256" y="2" relative="1" as="geometry">
            <mxPoint as="offset" />
          </mxGeometry>
        </mxCell>
        <mxCell id="DdHN2ZvcSUB-z4P__BnH-118" value="" style="rhombus;whiteSpace=wrap;html=1;" vertex="1" parent="1">
          <mxGeometry x="480" y="510" width="20" height="20" as="geometry" />
        </mxCell>
        <mxCell id="DdHN2ZvcSUB-z4P__BnH-119" value="" style="endArrow=classic;html=1;rounded=0;exitX=1;exitY=0.5;exitDx=0;exitDy=0;entryX=0.5;entryY=0;entryDx=0;entryDy=0;" edge="1" parent="1" source="DdHN2ZvcSUB-z4P__BnH-62" target="DdHN2ZvcSUB-z4P__BnH-118">
          <mxGeometry width="50" height="50" relative="1" as="geometry">
            <mxPoint x="650" y="510" as="sourcePoint" />
            <mxPoint x="700" y="460" as="targetPoint" />
            <Array as="points">
              <mxPoint x="490" y="470" />
            </Array>
          </mxGeometry>
        </mxCell>
        <mxCell id="DdHN2ZvcSUB-z4P__BnH-126" value="相手の番" style="edgeLabel;html=1;align=center;verticalAlign=middle;resizable=0;points=[];" vertex="1" connectable="0" parent="DdHN2ZvcSUB-z4P__BnH-119">
          <mxGeometry x="-0.2092" relative="1" as="geometry">
            <mxPoint as="offset" />
          </mxGeometry>
        </mxCell>
        <mxCell id="DdHN2ZvcSUB-z4P__BnH-122" style="edgeStyle=orthogonalEdgeStyle;rounded=0;orthogonalLoop=1;jettySize=auto;html=1;exitX=0;exitY=0.5;exitDx=0;exitDy=0;entryX=0.5;entryY=0;entryDx=0;entryDy=0;" edge="1" parent="1" source="DdHN2ZvcSUB-z4P__BnH-118" target="DdHN2ZvcSUB-z4P__BnH-121">
          <mxGeometry relative="1" as="geometry">
            <mxPoint x="460" y="560" as="targetPoint" />
          </mxGeometry>
        </mxCell>
        <mxCell id="DdHN2ZvcSUB-z4P__BnH-123" value="対CPU" style="edgeLabel;html=1;align=center;verticalAlign=middle;resizable=0;points=[];" vertex="1" connectable="0" parent="DdHN2ZvcSUB-z4P__BnH-122">
          <mxGeometry x="0.2001" relative="1" as="geometry">
            <mxPoint as="offset" />
          </mxGeometry>
        </mxCell>
        <mxCell id="DdHN2ZvcSUB-z4P__BnH-15" value="" style="verticalLabelPosition=bottom;verticalAlign=top;html=1;shape=mxgraph.flowchart.or;" vertex="1" parent="1">
          <mxGeometry x="250" y="1090" width="20" height="20" as="geometry" />
        </mxCell>
      </root>
    </mxGraphModel>
  </diagram>
</mxfile>
